<svg width="328" height="686" viewBox="0 0 328 686" fill="none" xmlns="http://www.w3.org/2000/svg">
<path d="M-16.7363 0.963867C97.5672 0.963962 183.667 43.6505 241.144 107.97C298.539 172.199 327.132 257.701 327.132 343.043C327.132 428.385 298.539 513.888 241.144 578.117C183.667 642.436 97.5671 685.122 -16.7363 685.122V675.122C94.872 675.122 178.207 633.538 233.687 571.453C289.247 509.278 317.132 426.24 317.132 343.043C317.132 259.846 289.247 176.808 233.687 114.633C178.207 52.5475 94.872 10.964 -16.7363 10.9639V0.963867ZM-16.7363 28.9287C88.0627 28.9288 167.035 68.0693 219.759 127.069C272.402 185.979 298.619 264.389 298.619 342.639C298.619 420.889 272.402 499.299 219.759 558.209C167.035 617.209 88.0627 656.349 -16.7363 656.349V646.349C85.3675 646.349 161.574 608.312 212.302 551.546C263.11 494.69 288.619 418.744 288.619 342.639C288.619 266.534 263.11 190.589 212.302 133.732C161.574 76.9663 85.3677 38.9288 -16.7363 38.9287V28.9287ZM-16.7363 57.4424C78.5572 57.4425 150.4 93.0176 198.372 146.671C246.264 200.235 270.105 271.517 270.105 342.64C270.105 413.762 246.264 485.044 198.372 538.607C150.4 592.261 78.5573 627.836 -16.7363 627.836V617.836C75.8642 617.836 144.943 583.363 190.918 531.942C236.973 480.432 260.105 411.615 260.105 342.64C260.105 273.664 236.973 204.847 190.918 153.337C144.943 101.917 75.8642 67.4425 -16.7363 67.4424V57.4424ZM-16.7363 84.8584C69.4173 84.8585 134.406 117.006 177.809 165.519C221.131 213.941 242.689 278.37 242.689 342.639C242.689 406.908 221.131 471.336 177.809 519.759C134.406 568.271 69.4175 600.419 -16.7363 600.419V590.419C66.7264 590.419 128.951 559.372 170.356 513.092C211.842 466.722 232.689 404.759 232.689 342.639C232.689 280.518 211.842 218.556 170.356 172.187C128.951 125.907 66.7264 94.8585 -16.7363 94.8584V84.8584ZM-16.7363 113.372C59.9116 113.372 117.772 141.954 156.423 185.12C194.994 228.197 214.176 285.498 214.176 342.64C214.176 399.781 194.994 457.082 156.423 500.158C117.772 543.324 59.9116 571.906 -16.7363 571.906V561.906C57.2235 561.906 112.32 534.421 148.973 493.487C185.705 452.464 204.176 397.631 204.176 342.64C204.176 287.648 185.705 232.814 148.973 191.791C112.32 150.857 57.2234 123.372 -16.7363 123.372V113.372ZM-16.7363 141.885C50.4054 141.885 101.137 166.902 135.036 204.721C168.856 242.451 185.663 292.624 185.663 342.639C185.663 392.654 168.856 442.826 135.036 480.557C101.137 518.376 50.4054 543.392 -16.7363 543.393V533.393C47.7208 533.392 95.6898 509.471 127.59 473.883C159.569 438.205 175.663 390.5 175.663 342.639C175.663 294.777 159.569 247.073 127.59 211.396C95.6898 175.807 47.7209 151.885 -16.7363 151.885V141.885ZM-16.7363 170.398C40.8984 170.399 84.5004 191.849 113.648 224.321C142.717 256.705 157.149 299.751 157.149 342.64C157.149 385.528 142.717 428.573 113.648 460.957C84.5004 493.429 40.8985 514.88 -16.7363 514.88V504.88C38.2189 504.88 79.0599 484.52 106.207 454.277C133.433 423.946 147.149 383.371 147.149 342.64C147.149 301.908 133.433 261.332 106.207 231.001C79.0599 200.758 38.2189 180.399 -16.7363 180.398V170.398ZM-16.7363 198.911C31.3907 198.911 67.8639 216.795 92.2607 243.92C116.579 270.957 128.637 306.876 128.637 342.639C128.637 378.402 116.579 414.32 92.2607 441.357C67.8639 468.482 31.3907 486.366 -16.7363 486.366V476.366C28.718 476.366 62.4313 459.568 84.8252 434.67C107.298 409.684 118.637 376.239 118.637 342.639C118.637 309.038 107.298 275.593 84.8252 250.607C62.4313 225.71 28.718 208.911 -16.7363 208.911V198.911ZM-16.7363 227.425C21.8811 227.425 51.2248 241.741 70.8711 263.518C90.4391 285.208 100.123 314.001 100.123 342.64C100.123 371.278 90.439 400.07 70.8711 421.761C51.2248 443.538 21.8811 457.853 -16.7363 457.854V447.854C19.2187 447.853 45.8052 434.616 63.4453 415.062C81.1633 395.423 90.1229 369.107 90.123 342.64C90.123 316.172 81.1633 289.856 63.4453 270.216C45.8052 250.663 19.2186 237.425 -16.7363 237.425V227.425ZM-16.7363 255.938C12.3679 255.938 34.5809 266.682 49.4775 283.11C64.2975 299.454 71.6102 321.121 71.6104 342.639C71.6104 364.156 64.2973 385.824 49.4775 402.167C34.5809 418.595 12.3679 429.34 -16.7363 429.34V419.34C9.72319 419.34 29.184 409.659 42.0693 395.449C55.031 381.155 61.6104 361.971 61.6104 342.639C61.6102 323.306 55.0312 304.122 42.0693 289.828C29.184 275.618 9.72316 265.938 -16.7363 265.938V255.938ZM-16.7363 284.451C2.84569 284.451 17.9256 291.619 28.0752 302.694C38.1508 313.69 43.0967 328.236 43.0967 342.64C43.0965 357.044 38.1508 371.589 28.0752 382.584C17.9256 393.66 2.84569 400.827 -16.7363 400.827V390.827C0.236597 390.827 12.5742 384.698 20.7021 375.828C28.9037 366.878 33.0965 354.829 33.0967 342.64C33.0967 330.45 28.9037 318.4 20.7021 309.45C12.5742 300.581 0.23654 294.451 -16.7363 294.451V284.451Z" fill="url(#paint0_linear_253_184)" fill-opacity="0.25"/>
<ellipse cx="-16.6169" cy="343.043" rx="38.3831" ry="35.2172" fill="url(#paint1_radial_253_184)"/>
<defs>
<linearGradient id="paint0_linear_253_184" x1="-16.7363" y1="343.043" x2="318.453" y2="343.043" gradientUnits="userSpaceOnUse">
<stop stop-color="white"/>
<stop offset="1" stop-color="#999999" stop-opacity="0"/>
</linearGradient>
<radialGradient id="paint1_radial_253_184" cx="0" cy="0" r="1" gradientUnits="userSpaceOnUse" gradientTransform="translate(-16.6169 343.043) rotate(90) scale(35.2172 38.3831)">
<stop stop-color="white" stop-opacity="0.5"/>
<stop offset="1" stop-color="white" stop-opacity="0"/>
</radialGradient>
</defs>
</svg>
