<svg width="327" height="686" viewBox="0 0 327 686" fill="none" xmlns="http://www.w3.org/2000/svg">
<path d="M343.868 0.963867C229.565 0.963962 143.464 43.6505 85.9883 107.97C28.593 172.199 3.05176e-05 257.701 0 343.043C6.10352e-05 428.385 28.5927 513.888 85.9883 578.117C143.464 642.436 229.565 685.122 343.868 685.122V675.122C232.26 675.122 148.925 633.538 93.4453 571.453C37.8851 509.278 10.0001 426.24 10 343.043C10 259.846 37.8851 176.808 93.4453 114.633C148.925 52.5475 232.26 10.964 343.868 10.9639V0.963867ZM343.868 28.9287C239.069 28.9288 160.097 68.0693 107.373 127.069C54.7299 185.979 28.5128 264.389 28.5127 342.639C28.5127 420.889 54.7298 499.299 107.373 558.209C160.097 617.209 239.069 656.349 343.868 656.349V646.349C241.764 646.349 165.558 608.312 114.83 551.546C64.022 494.69 38.5127 418.744 38.5127 342.639C38.5128 266.534 64.022 190.589 114.83 133.732C165.558 76.9663 241.764 38.9288 343.868 38.9287V28.9287ZM343.868 57.4424C248.575 57.4425 176.732 93.0176 128.76 146.671C80.8682 200.235 57.0264 271.517 57.0264 342.64C57.0265 413.762 80.8682 485.044 128.76 538.607C176.732 592.261 248.575 627.836 343.868 627.836V617.836C251.268 617.836 182.189 583.363 136.214 531.942C90.1584 480.432 67.0265 411.615 67.0264 342.64C67.0264 273.664 90.1586 204.847 136.214 153.337C182.189 101.917 251.268 67.4425 343.868 67.4424V57.4424ZM343.868 84.8584C257.714 84.8585 192.726 117.006 149.323 165.519C106.001 213.941 84.4425 278.37 84.4424 342.639C84.4424 406.908 106.001 471.336 149.323 519.759C192.726 568.271 257.714 600.419 343.868 600.419V590.419C260.405 590.419 198.181 559.372 156.775 513.092C115.29 466.722 94.4424 404.759 94.4424 342.639C94.4425 280.518 115.29 218.556 156.775 172.187C198.181 125.907 260.405 94.8585 343.868 94.8584V84.8584ZM343.868 113.372C267.22 113.372 209.36 141.954 170.709 185.12C132.138 228.197 112.956 285.498 112.956 342.64C112.956 399.781 132.138 457.082 170.709 500.158C209.36 543.324 267.22 571.906 343.868 571.906V561.906C269.908 561.906 214.812 534.421 178.159 493.487C141.427 452.464 122.956 397.631 122.956 342.64C122.956 287.648 141.427 232.814 178.159 191.791C214.812 150.857 269.908 123.372 343.868 123.372V113.372ZM343.868 141.885C276.726 141.885 225.995 166.902 192.096 204.721C158.276 242.451 141.469 292.624 141.469 342.639C141.469 392.654 158.276 442.826 192.096 480.557C225.995 518.376 276.726 543.392 343.868 543.393V533.393C279.411 533.392 231.442 509.471 199.542 473.883C167.562 438.205 151.469 390.5 151.469 342.639C151.469 294.777 167.562 247.073 199.542 211.396C231.442 175.807 279.411 151.885 343.868 151.885V141.885ZM343.868 170.398C286.233 170.399 242.631 191.849 213.483 224.321C184.415 256.705 169.982 299.751 169.982 342.64C169.983 385.528 184.415 428.573 213.483 460.957C242.631 493.429 286.233 514.88 343.868 514.88V504.88C288.913 504.88 248.072 484.52 220.925 454.277C193.698 423.946 179.983 383.371 179.982 342.64C179.982 301.908 193.699 261.332 220.925 231.001C248.072 200.758 288.913 180.399 343.868 180.398V170.398ZM343.868 198.911C295.741 198.911 259.268 216.795 234.871 243.92C210.553 270.957 198.495 306.876 198.495 342.639C198.495 378.402 210.553 414.32 234.871 441.357C259.268 468.482 295.741 486.366 343.868 486.366V476.366C298.414 476.366 264.701 459.568 242.307 434.67C219.834 409.684 208.495 376.239 208.495 342.639C208.495 309.038 219.834 275.593 242.307 250.607C264.701 225.71 298.414 208.911 343.868 208.911V198.911ZM343.868 227.425C305.251 227.425 275.907 241.741 256.261 263.518C236.693 285.208 227.009 314.001 227.009 342.64C227.009 371.278 236.693 400.07 256.261 421.761C275.907 443.538 305.251 457.853 343.868 457.854V447.854C307.913 447.853 281.327 434.616 263.687 415.062C245.969 395.423 237.009 369.107 237.009 342.64C237.009 316.172 245.969 289.856 263.687 270.216C281.327 250.663 307.913 237.425 343.868 237.425V227.425ZM343.868 255.938C314.764 255.938 292.551 266.682 277.654 283.11C262.834 299.454 255.522 321.121 255.521 342.639C255.521 364.156 262.835 385.824 277.654 402.167C292.551 418.595 314.764 429.34 343.868 429.34V419.34C317.409 419.34 297.948 409.659 285.062 395.449C272.101 381.155 265.521 361.971 265.521 342.639C265.522 323.306 272.101 304.122 285.062 289.828C297.948 275.618 317.409 265.938 343.868 265.938V255.938ZM343.868 284.451C324.286 284.451 309.206 291.619 299.057 302.694C288.981 313.69 284.035 328.236 284.035 342.64C284.035 357.044 288.981 371.589 299.057 382.584C309.206 393.66 324.286 400.827 343.868 400.827V390.827C326.895 390.827 314.558 384.698 306.43 375.828C298.228 366.878 294.035 354.829 294.035 342.64C294.035 330.45 298.228 318.4 306.43 309.45C314.558 300.581 326.895 294.451 343.868 294.451V284.451Z" fill="url(#paint0_linear_253_185)" fill-opacity="0.25"/>
<ellipse cx="38.3831" cy="35.2172" rx="38.3831" ry="35.2172" transform="matrix(-1 0 0 1 382.132 307.825)" fill="url(#paint1_radial_253_185)"/>
<defs>
<linearGradient id="paint0_linear_253_185" x1="343.868" y1="343.043" x2="8.67881" y2="343.043" gradientUnits="userSpaceOnUse">
<stop stop-color="white"/>
<stop offset="1" stop-color="#999999" stop-opacity="0"/>
</linearGradient>
<radialGradient id="paint1_radial_253_185" cx="0" cy="0" r="1" gradientUnits="userSpaceOnUse" gradientTransform="translate(38.3831 35.2172) rotate(90) scale(35.2172 38.3831)">
<stop stop-color="white" stop-opacity="0.5"/>
<stop offset="1" stop-color="white" stop-opacity="0"/>
</radialGradient>
</defs>
</svg>
