<svg width="565" height="214" viewBox="0 0 565 214" fill="none" xmlns="http://www.w3.org/2000/svg">
<mask id="path-1-outside-1_143_527" maskUnits="userSpaceOnUse" x="0" y="0" width="565" height="214" fill="black">
<rect fill="white" width="565" height="214"/>
<path fill-rule="evenodd" clip-rule="evenodd" d="M501.97 6.96767C494.95 9.21823 487.691 14.631 484.24 20.1865C478.74 29.0415 476.525 42.9332 478.306 57.3872C480.254 73.1847 481.676 75.5177 511.563 111.961C527.201 131.029 539.297 146.691 540.429 149.336C542.039 153.1 542.383 155.853 542.413 165.216C542.449 176.211 542.369 176.666 539.676 180.759C535.308 187.397 531.124 189.47 521.102 189.964C507.539 190.632 500.611 187.198 496.791 177.912C494.955 173.449 494.747 171.317 494.747 157V141.058H486.011H477.273L477.702 159.747C478.198 181.422 479.264 186.216 485.477 194.731C492.465 204.31 502.776 208.393 519.734 208.298C529.814 208.242 538.686 206.239 544.103 202.8C548.112 200.254 554.666 192.414 556.524 187.943C560.557 178.236 561.191 158.165 557.846 146.069C555.026 135.865 550.581 129.497 524.804 98.7331C509.199 80.1093 498.435 66.3828 497.31 63.677C495.006 58.1281 494.044 43.8448 495.587 38.0984C498.195 28.3965 504.039 23.9144 515.195 23.0597C525.193 22.2943 531.546 24.5649 535.879 30.4552C539.932 35.9639 541.087 42.315 541.087 59.1011V71.8781H549.264H557.442V54.7004C557.442 34.4096 555.881 26.1594 550.611 18.5987C546.841 13.1905 538.322 7.68513 531.195 6.0516C523.655 4.32434 508.759 4.79074 501.97 6.96767ZM5 107.095V204.95L29.7599 204.34C47.1945 203.91 55.8637 203.257 59.063 202.132C71.8245 197.646 78.8082 189.379 81.9094 175.089C83.4585 167.949 83.6957 48.3827 82.1783 39.6918C80.0521 27.5206 72.9185 17.6927 62.4994 12.5835C57.5165 10.1399 55.8982 9.98702 31.1229 9.62327L5 9.24054V107.095ZM149.471 9.8587C149.471 10.1153 141.498 53.6269 131.753 106.554C122.008 159.479 114.035 203.204 114.035 203.721C114.035 205.307 130.382 204.863 130.881 203.263C131.12 202.497 133.068 192.328 135.21 180.668L139.105 159.468L162.44 159.17L185.773 158.872L186.26 161.402C186.527 162.793 188.367 172.622 190.349 183.245C192.33 193.867 194.19 203.031 194.48 203.608C194.771 204.186 198.713 204.658 203.239 204.658C211.288 204.658 211.458 204.603 210.943 202.186C210.653 200.826 202.537 156.892 192.907 104.554L175.399 9.39341H162.435C155.305 9.39341 149.471 9.60318 149.471 9.8587ZM243.259 93.9396L243.513 178.486L246.542 186.041C253.331 202.972 270.205 211.055 292.335 207.976C308.802 205.686 318.072 198.823 323.2 185.132L325.289 179.553L325.538 94.473L325.787 9.39341H317.616H309.445L309.189 91.6835L308.934 173.974L306.448 179.166C302.859 186.665 297.853 189.396 286.673 189.956C273.121 190.636 266.188 187.2 262.367 177.912L260.323 172.943V91.168V9.39341H251.663H243.004L243.259 93.9396ZM354.672 9.63344C355.232 11.0092 363.815 38.8348 374.809 72.9693L394.799 135.031V169.886V204.742L403.203 204.421L411.608 204.1L412.081 167.279L412.554 130.457L432.124 70.2044L451.462 9.63344L443.088 9.62996C438.594 9.63344 436.013 9.63344 434.677 9.63344C434.118 11.0092 426.482 33.0628 418.303 59.9468C408.553 91.9903 403.165 108.319 402.662 107.353C402.238 106.54 395.287 84.2936 387.215 57.9139L372.576 9.63344H363.624C358.589 9.63344 355.232 9.63344 354.672 9.63344ZM54.5571 29.8873C59.8662 32.9234 63.5997 37.8842 64.9926 43.7544C65.6577 46.5573 65.8849 67.6547 65.6986 109.257L65.4233 170.626L62.6975 175.368C61.0383 178.254 58.2125 181.202 55.4776 182.9C51.2479 185.525 50.1367 185.689 36.6237 185.689H22.2638V106.468V27.2462L36.1203 27.2573C48.7428 27.2674 50.3847 27.5017 54.5571 29.8873ZM172.65 87.9143C177.937 116.678 182.1 140.414 181.901 140.658C181.702 140.902 172.746 140.966 161.999 140.801L142.458 140.5L151.831 89.7308C162.397 32.4937 162.301 32.9736 162.726 34.4989C162.897 35.1125 167.362 59.149 172.65 87.9143Z"/>
</mask>
<path fill-rule="evenodd" clip-rule="evenodd" d="M501.97 6.96767C494.95 9.21823 487.691 14.631 484.24 20.1865C478.74 29.0415 476.525 42.9332 478.306 57.3872C480.254 73.1847 481.676 75.5177 511.563 111.961C527.201 131.029 539.297 146.691 540.429 149.336C542.039 153.1 542.383 155.853 542.413 165.216C542.449 176.211 542.369 176.666 539.676 180.759C535.308 187.397 531.124 189.47 521.102 189.964C507.539 190.632 500.611 187.198 496.791 177.912C494.955 173.449 494.747 171.317 494.747 157V141.058H486.011H477.273L477.702 159.747C478.198 181.422 479.264 186.216 485.477 194.731C492.465 204.31 502.776 208.393 519.734 208.298C529.814 208.242 538.686 206.239 544.103 202.8C548.112 200.254 554.666 192.414 556.524 187.943C560.557 178.236 561.191 158.165 557.846 146.069C555.026 135.865 550.581 129.497 524.804 98.7331C509.199 80.1093 498.435 66.3828 497.31 63.677C495.006 58.1281 494.044 43.8448 495.587 38.0984C498.195 28.3965 504.039 23.9144 515.195 23.0597C525.193 22.2943 531.546 24.5649 535.879 30.4552C539.932 35.9639 541.087 42.315 541.087 59.1011V71.8781H549.264H557.442V54.7004C557.442 34.4096 555.881 26.1594 550.611 18.5987C546.841 13.1905 538.322 7.68513 531.195 6.0516C523.655 4.32434 508.759 4.79074 501.97 6.96767ZM5 107.095V204.95L29.7599 204.34C47.1945 203.91 55.8637 203.257 59.063 202.132C71.8245 197.646 78.8082 189.379 81.9094 175.089C83.4585 167.949 83.6957 48.3827 82.1783 39.6918C80.0521 27.5206 72.9185 17.6927 62.4994 12.5835C57.5165 10.1399 55.8982 9.98702 31.1229 9.62327L5 9.24054V107.095ZM149.471 9.8587C149.471 10.1153 141.498 53.6269 131.753 106.554C122.008 159.479 114.035 203.204 114.035 203.721C114.035 205.307 130.382 204.863 130.881 203.263C131.12 202.497 133.068 192.328 135.21 180.668L139.105 159.468L162.44 159.17L185.773 158.872L186.26 161.402C186.527 162.793 188.367 172.622 190.349 183.245C192.33 193.867 194.19 203.031 194.48 203.608C194.771 204.186 198.713 204.658 203.239 204.658C211.288 204.658 211.458 204.603 210.943 202.186C210.653 200.826 202.537 156.892 192.907 104.554L175.399 9.39341H162.435C155.305 9.39341 149.471 9.60318 149.471 9.8587ZM243.259 93.9396L243.513 178.486L246.542 186.041C253.331 202.972 270.205 211.055 292.335 207.976C308.802 205.686 318.072 198.823 323.2 185.132L325.289 179.553L325.538 94.473L325.787 9.39341H317.616H309.445L309.189 91.6835L308.934 173.974L306.448 179.166C302.859 186.665 297.853 189.396 286.673 189.956C273.121 190.636 266.188 187.2 262.367 177.912L260.323 172.943V91.168V9.39341H251.663H243.004L243.259 93.9396ZM354.672 9.63344C355.232 11.0092 363.815 38.8348 374.809 72.9693L394.799 135.031V169.886V204.742L403.203 204.421L411.608 204.1L412.081 167.279L412.554 130.457L432.124 70.2044L451.462 9.63344L443.088 9.62996C438.594 9.63344 436.013 9.63344 434.677 9.63344C434.118 11.0092 426.482 33.0628 418.303 59.9468C408.553 91.9903 403.165 108.319 402.662 107.353C402.238 106.54 395.287 84.2936 387.215 57.9139L372.576 9.63344H363.624C358.589 9.63344 355.232 9.63344 354.672 9.63344ZM54.5571 29.8873C59.8662 32.9234 63.5997 37.8842 64.9926 43.7544C65.6577 46.5573 65.8849 67.6547 65.6986 109.257L65.4233 170.626L62.6975 175.368C61.0383 178.254 58.2125 181.202 55.4776 182.9C51.2479 185.525 50.1367 185.689 36.6237 185.689H22.2638V106.468V27.2462L36.1203 27.2573C48.7428 27.2674 50.3847 27.5017 54.5571 29.8873ZM172.65 87.9143C177.937 116.678 182.1 140.414 181.901 140.658C181.702 140.902 172.746 140.966 161.999 140.801L142.458 140.5L151.831 89.7308C162.397 32.4937 162.301 32.9736 162.726 34.4989C162.897 35.1125 167.362 59.149 172.65 87.9143Z" fill="white"/>
<path fill-rule="evenodd" clip-rule="evenodd" d="M501.97 6.96767C494.95 9.21823 487.691 14.631 484.24 20.1865C478.74 29.0415 476.525 42.9332 478.306 57.3872C480.254 73.1847 481.676 75.5177 511.563 111.961C527.201 131.029 539.297 146.691 540.429 149.336C542.039 153.1 542.383 155.853 542.413 165.216C542.449 176.211 542.369 176.666 539.676 180.759C535.308 187.397 531.124 189.47 521.102 189.964C507.539 190.632 500.611 187.198 496.791 177.912C494.955 173.449 494.747 171.317 494.747 157V141.058H486.011H477.273L477.702 159.747C478.198 181.422 479.264 186.216 485.477 194.731C492.465 204.31 502.776 208.393 519.734 208.298C529.814 208.242 538.686 206.239 544.103 202.8C548.112 200.254 554.666 192.414 556.524 187.943C560.557 178.236 561.191 158.165 557.846 146.069C555.026 135.865 550.581 129.497 524.804 98.7331C509.199 80.1093 498.435 66.3828 497.31 63.677C495.006 58.1281 494.044 43.8448 495.587 38.0984C498.195 28.3965 504.039 23.9144 515.195 23.0597C525.193 22.2943 531.546 24.5649 535.879 30.4552C539.932 35.9639 541.087 42.315 541.087 59.1011V71.8781H549.264H557.442V54.7004C557.442 34.4096 555.881 26.1594 550.611 18.5987C546.841 13.1905 538.322 7.68513 531.195 6.0516C523.655 4.32434 508.759 4.79074 501.97 6.96767ZM5 107.095V204.95L29.7599 204.34C47.1945 203.91 55.8637 203.257 59.063 202.132C71.8245 197.646 78.8082 189.379 81.9094 175.089C83.4585 167.949 83.6957 48.3827 82.1783 39.6918C80.0521 27.5206 72.9185 17.6927 62.4994 12.5835C57.5165 10.1399 55.8982 9.98702 31.1229 9.62327L5 9.24054V107.095ZM149.471 9.8587C149.471 10.1153 141.498 53.6269 131.753 106.554C122.008 159.479 114.035 203.204 114.035 203.721C114.035 205.307 130.382 204.863 130.881 203.263C131.12 202.497 133.068 192.328 135.21 180.668L139.105 159.468L162.44 159.17L185.773 158.872L186.26 161.402C186.527 162.793 188.367 172.622 190.349 183.245C192.33 193.867 194.19 203.031 194.48 203.608C194.771 204.186 198.713 204.658 203.239 204.658C211.288 204.658 211.458 204.603 210.943 202.186C210.653 200.826 202.537 156.892 192.907 104.554L175.399 9.39341H162.435C155.305 9.39341 149.471 9.60318 149.471 9.8587ZM243.259 93.9396L243.513 178.486L246.542 186.041C253.331 202.972 270.205 211.055 292.335 207.976C308.802 205.686 318.072 198.823 323.2 185.132L325.289 179.553L325.538 94.473L325.787 9.39341H317.616H309.445L309.189 91.6835L308.934 173.974L306.448 179.166C302.859 186.665 297.853 189.396 286.673 189.956C273.121 190.636 266.188 187.2 262.367 177.912L260.323 172.943V91.168V9.39341H251.663H243.004L243.259 93.9396ZM354.672 9.63344C355.232 11.0092 363.815 38.8348 374.809 72.9693L394.799 135.031V169.886V204.742L403.203 204.421L411.608 204.1L412.081 167.279L412.554 130.457L432.124 70.2044L451.462 9.63344L443.088 9.62996C438.594 9.63344 436.013 9.63344 434.677 9.63344C434.118 11.0092 426.482 33.0628 418.303 59.9468C408.553 91.9903 403.165 108.319 402.662 107.353C402.238 106.54 395.287 84.2936 387.215 57.9139L372.576 9.63344H363.624C358.589 9.63344 355.232 9.63344 354.672 9.63344ZM54.5571 29.8873C59.8662 32.9234 63.5997 37.8842 64.9926 43.7544C65.6577 46.5573 65.8849 67.6547 65.6986 109.257L65.4233 170.626L62.6975 175.368C61.0383 178.254 58.2125 181.202 55.4776 182.9C51.2479 185.525 50.1367 185.689 36.6237 185.689H22.2638V106.468V27.2462L36.1203 27.2573C48.7428 27.2674 50.3847 27.5017 54.5571 29.8873ZM172.65 87.9143C177.937 116.678 182.1 140.414 181.901 140.658C181.702 140.902 172.746 140.966 161.999 140.801L142.458 140.5L151.831 89.7308C162.397 32.4937 162.301 32.9736 162.726 34.4989C162.897 35.1125 167.362 59.149 172.65 87.9143Z" stroke="white" stroke-width="10" mask="url(#path-1-outside-1_143_527)"/>
</svg>
